<svg id="Layer_1" data-name="Layer 1" xmlns="http://www.w3.org/2000/svg" xmlns:xlink="http://www.w3.org/1999/xlink" viewBox="0 0 600 600"><defs><style>.cls-1,.cls-4,.cls-5,.cls-6,.cls-7,.cls-8{fill:none;}.cls-2{clip-path:url(#clip-path);}.cls-3{fill:#55bed6;}.cls-4{stroke:#fdffff;stroke-width:0.1px;}.cls-4,.cls-5,.cls-6,.cls-7,.cls-8{stroke-miterlimit:10;}.cls-5,.cls-6,.cls-7,.cls-8{stroke:#fff;}.cls-5,.cls-6,.cls-7{stroke-width:1.5px;}.cls-6{stroke-dasharray:1 5;}.cls-7{stroke-dasharray:20 5 1 5;}.cls-8{stroke-width:3px;}.cls-9{clip-path:url(#clip-path-2);}.cls-10{fill:#fff;}.cls-11{clip-path:url(#clip-path-3);}</style><clipPath id="clip-path"><rect class="cls-1" x="0.48" y="0.03" width="599" height="599" rx="60" ry="60"/></clipPath><clipPath id="clip-path-2"><path class="cls-1" d="M444.58,82.41H155.48a71.09,71.09,0,0,0-71,71v289.1a71.09,71.09,0,0,0,71,71h289.1a71.09,71.09,0,0,0,71-71V153.42A71.09,71.09,0,0,0,444.58,82.41Zm55.79,360.11a55.85,55.85,0,0,1-55.79,55.79H155.48a55.85,55.85,0,0,1-55.79-55.79V153.42a55.86,55.86,0,0,1,55.79-55.79h289.1a55.85,55.85,0,0,1,55.79,55.79Z"/></clipPath><clipPath id="clip-path-3"><path class="cls-1" d="M457.65,214.89a4.05,4.05,0,0,0-5.39-.55l-53.69,36.43c-3.62,2.46-2.79,10.35,2.71,10.11l17.62-.79,1.57-.07C310.28,393.44,195.81,353.68,147.72,327.3l-.16-.11-.26-.12-.23-.12v0a4.84,4.84,0,0,0-4.73,8.42h0l.1.06.17.12.12.06c176.46,107.72,253.41,5.43,295.38-68.1l11.56,23.69a4.91,4.91,0,0,0,9.4-2q.45-34.84.89-69.7A5.19,5.19,0,0,0,457.65,214.89Z"/></clipPath></defs><title>GuiaBolsoDev</title><g class="cls-2"><rect class="cls-3" x="-52.44" y="-13.67" width="704.46" height="637.95"/><line class="cls-4" x1="6.63" y1="-11.86" x2="6.63" y2="624.3"/><line class="cls-4" x1="16.66" y1="-11.86" x2="16.66" y2="624.3"/><line class="cls-4" x1="26.69" y1="-11.86" x2="26.69" y2="624.3"/><line class="cls-4" x1="36.72" y1="-11.86" x2="36.72" y2="624.3"/><line class="cls-4" x1="46.75" y1="-11.86" x2="46.75" y2="624.3"/><line class="cls-4" x1="56.78" y1="-11.86" x2="56.78" y2="624.3"/><line class="cls-4" x1="66.81" y1="-11.86" x2="66.81" y2="624.3"/><line class="cls-4" x1="76.84" y1="-11.86" x2="76.84" y2="624.3"/><line class="cls-4" x1="86.87" y1="-11.86" x2="86.87" y2="624.3"/><line class="cls-4" x1="96.9" y1="-11.86" x2="96.9" y2="624.3"/><line class="cls-4" x1="106.92" y1="-11.86" x2="106.92" y2="624.3"/><line class="cls-4" x1="116.95" y1="-11.86" x2="116.95" y2="624.3"/><line class="cls-4" x1="126.98" y1="-11.86" x2="126.98" y2="624.3"/><line class="cls-4" x1="137.01" y1="-11.86" x2="137.01" y2="624.3"/><line class="cls-4" x1="147.04" y1="-11.86" x2="147.04" y2="624.3"/><line class="cls-4" x1="157.07" y1="-11.86" x2="157.07" y2="624.3"/><line class="cls-4" x1="167.1" y1="-11.86" x2="167.1" y2="624.3"/><line class="cls-4" x1="177.13" y1="-11.86" x2="177.13" y2="624.3"/><line class="cls-4" x1="187.16" y1="-11.86" x2="187.16" y2="624.3"/><line class="cls-4" x1="197.19" y1="-11.86" x2="197.19" y2="624.3"/><line class="cls-4" x1="207.22" y1="-11.86" x2="207.22" y2="624.3"/><line class="cls-4" x1="217.25" y1="-11.86" x2="217.25" y2="624.3"/><line class="cls-4" x1="227.28" y1="-11.86" x2="227.28" y2="624.3"/><line class="cls-4" x1="237.31" y1="-11.86" x2="237.31" y2="624.3"/><line class="cls-4" x1="247.34" y1="-11.86" x2="247.34" y2="624.3"/><line class="cls-4" x1="257.37" y1="-11.86" x2="257.37" y2="624.3"/><line class="cls-4" x1="267.4" y1="-11.86" x2="267.4" y2="624.3"/><line class="cls-4" x1="277.42" y1="-11.86" x2="277.42" y2="624.3"/><line class="cls-4" x1="287.45" y1="-11.86" x2="287.45" y2="624.3"/><line class="cls-4" x1="297.48" y1="-11.86" x2="297.48" y2="624.3"/><line class="cls-4" x1="307.51" y1="-11.86" x2="307.51" y2="624.3"/><line class="cls-4" x1="317.54" y1="-11.86" x2="317.54" y2="624.3"/><line class="cls-4" x1="327.57" y1="-11.86" x2="327.57" y2="624.3"/><line class="cls-4" x1="337.6" y1="-11.86" x2="337.6" y2="624.3"/><line class="cls-4" x1="347.63" y1="-11.86" x2="347.63" y2="624.3"/><line class="cls-4" x1="357.66" y1="-11.86" x2="357.66" y2="624.3"/><line class="cls-4" x1="367.69" y1="-11.86" x2="367.69" y2="624.3"/><line class="cls-4" x1="377.72" y1="-11.86" x2="377.72" y2="624.3"/><line class="cls-4" x1="387.75" y1="-11.86" x2="387.75" y2="624.3"/><line class="cls-4" x1="397.78" y1="-11.86" x2="397.78" y2="624.3"/><line class="cls-4" x1="407.81" y1="-11.86" x2="407.81" y2="624.3"/><line class="cls-4" x1="417.84" y1="-11.86" x2="417.84" y2="624.3"/><line class="cls-4" x1="427.87" y1="-11.86" x2="427.87" y2="624.3"/><line class="cls-4" x1="437.9" y1="-11.86" x2="437.9" y2="624.3"/><line class="cls-4" x1="447.92" y1="-11.86" x2="447.92" y2="624.3"/><line class="cls-4" x1="457.95" y1="-11.86" x2="457.95" y2="624.3"/><line class="cls-4" x1="467.98" y1="-11.86" x2="467.98" y2="624.3"/><line class="cls-4" x1="478.01" y1="-11.86" x2="478.01" y2="624.3"/><line class="cls-4" x1="488.04" y1="-11.86" x2="488.04" y2="624.3"/><line class="cls-4" x1="498.07" y1="-11.86" x2="498.07" y2="624.3"/><line class="cls-4" x1="508.1" y1="-11.86" x2="508.1" y2="624.3"/><line class="cls-4" x1="518.13" y1="-11.86" x2="518.13" y2="624.3"/><line class="cls-4" x1="528.16" y1="-11.86" x2="528.16" y2="624.3"/><line class="cls-4" x1="538.19" y1="-11.86" x2="538.19" y2="624.3"/><line class="cls-4" x1="548.22" y1="-11.86" x2="548.22" y2="624.3"/><line class="cls-4" x1="558.25" y1="-11.86" x2="558.25" y2="624.3"/><line class="cls-4" x1="568.28" y1="-11.86" x2="568.28" y2="624.3"/><line class="cls-4" x1="578.31" y1="-11.86" x2="578.31" y2="624.3"/><line class="cls-4" x1="588.34" y1="-11.86" x2="588.34" y2="624.3"/><line class="cls-4" x1="598.37" y1="-11.86" x2="598.37" y2="624.3"/><line class="cls-4" x1="-49.85" y1="6.99" x2="650.15" y2="6.99"/><line class="cls-4" x1="-49.85" y1="17.02" x2="650.15" y2="17.02"/><line class="cls-4" x1="-49.85" y1="27.05" x2="650.15" y2="27.05"/><line class="cls-4" x1="-49.85" y1="37.08" x2="650.15" y2="37.08"/><line class="cls-4" x1="-49.85" y1="47.11" x2="650.15" y2="47.11"/><line class="cls-4" x1="-49.85" y1="57.14" x2="650.15" y2="57.14"/><line class="cls-4" x1="-49.85" y1="67.17" x2="650.15" y2="67.17"/><line class="cls-4" x1="-49.85" y1="77.2" x2="650.15" y2="77.2"/><line class="cls-4" x1="-49.85" y1="87.23" x2="650.15" y2="87.23"/><line class="cls-4" x1="-49.85" y1="97.26" x2="650.15" y2="97.26"/><line class="cls-4" x1="-49.85" y1="107.29" x2="650.15" y2="107.29"/><line class="cls-4" x1="-49.85" y1="117.32" x2="650.15" y2="117.32"/><line class="cls-4" x1="-49.85" y1="127.35" x2="650.15" y2="127.35"/><line class="cls-4" x1="-49.85" y1="137.38" x2="650.15" y2="137.38"/><line class="cls-4" x1="-49.85" y1="147.41" x2="650.15" y2="147.41"/><line class="cls-4" x1="-49.85" y1="157.44" x2="650.15" y2="157.44"/><line class="cls-4" x1="-49.85" y1="167.47" x2="650.15" y2="167.47"/><line class="cls-4" x1="-49.85" y1="177.5" x2="650.15" y2="177.5"/><line class="cls-4" x1="-49.85" y1="187.53" x2="650.15" y2="187.53"/><line class="cls-4" x1="-49.85" y1="197.56" x2="650.15" y2="197.56"/><line class="cls-4" x1="-49.85" y1="207.59" x2="650.15" y2="207.59"/><line class="cls-4" x1="-49.85" y1="217.62" x2="650.15" y2="217.62"/><line class="cls-4" x1="-49.85" y1="227.64" x2="650.15" y2="227.64"/><line class="cls-4" x1="-49.85" y1="237.67" x2="650.15" y2="237.67"/><line class="cls-4" x1="-49.85" y1="247.7" x2="650.15" y2="247.7"/><line class="cls-4" x1="-49.85" y1="257.73" x2="650.15" y2="257.73"/><line class="cls-4" x1="-49.85" y1="267.76" x2="650.15" y2="267.76"/><line class="cls-4" x1="-49.85" y1="277.79" x2="650.15" y2="277.79"/><line class="cls-4" x1="-49.85" y1="287.82" x2="650.15" y2="287.82"/><line class="cls-4" x1="-49.85" y1="297.85" x2="650.15" y2="297.85"/><line class="cls-4" x1="-49.85" y1="307.88" x2="650.15" y2="307.88"/><line class="cls-4" x1="-49.85" y1="317.91" x2="650.15" y2="317.91"/><line class="cls-4" x1="-49.85" y1="327.94" x2="650.15" y2="327.94"/><line class="cls-4" x1="-49.85" y1="337.97" x2="650.15" y2="337.97"/><line class="cls-4" x1="-49.85" y1="348" x2="650.15" y2="348"/><line class="cls-4" x1="-49.85" y1="358.03" x2="650.15" y2="358.03"/><line class="cls-4" x1="-49.85" y1="368.06" x2="650.15" y2="368.06"/><line class="cls-4" x1="-49.85" y1="378.09" x2="650.15" y2="378.09"/><line class="cls-4" x1="-49.85" y1="388.12" x2="650.15" y2="388.12"/><line class="cls-4" x1="-49.85" y1="398.15" x2="650.15" y2="398.15"/><line class="cls-4" x1="-49.85" y1="408.18" x2="650.15" y2="408.18"/><line class="cls-4" x1="-49.85" y1="418.21" x2="650.15" y2="418.21"/><line class="cls-4" x1="-49.85" y1="428.24" x2="650.15" y2="428.24"/><line class="cls-4" x1="-49.85" y1="438.27" x2="650.15" y2="438.27"/><line class="cls-4" x1="-49.85" y1="448.3" x2="650.15" y2="448.3"/><line class="cls-4" x1="-49.85" y1="458.33" x2="650.15" y2="458.33"/><line class="cls-4" x1="-49.85" y1="468.36" x2="650.15" y2="468.36"/><line class="cls-4" x1="-49.85" y1="478.39" x2="650.15" y2="478.39"/><line class="cls-4" x1="-49.85" y1="488.42" x2="650.15" y2="488.42"/><line class="cls-4" x1="-49.85" y1="498.45" x2="650.15" y2="498.45"/><line class="cls-4" x1="-49.85" y1="508.48" x2="650.15" y2="508.48"/><line class="cls-4" x1="-49.85" y1="518.51" x2="650.15" y2="518.51"/><line class="cls-4" x1="-49.85" y1="528.54" x2="650.15" y2="528.54"/><line class="cls-4" x1="-49.85" y1="538.57" x2="650.15" y2="538.57"/><line class="cls-4" x1="-49.85" y1="548.6" x2="650.15" y2="548.6"/><line class="cls-4" x1="-49.85" y1="558.63" x2="650.15" y2="558.63"/><line class="cls-4" x1="-49.85" y1="568.66" x2="650.15" y2="568.66"/><line class="cls-4" x1="-49.85" y1="578.69" x2="650.15" y2="578.69"/><line class="cls-4" x1="-49.85" y1="588.71" x2="650.15" y2="588.71"/><line class="cls-4" x1="-49.85" y1="598.74" x2="650.15" y2="598.74"/></g><line class="cls-5" x1="84.1" y1="37.5" x2="84.1" y2="47.5"/><line class="cls-6" x1="84.1" y1="52.5" x2="84.1" y2="56"/><line class="cls-7" x1="84.1" y1="58.5" x2="84.1" y2="552"/><line class="cls-5" x1="84.1" y1="554.5" x2="84.1" y2="564.5"/><line class="cls-5" x1="136.86" y1="37.5" x2="136.86" y2="47.5"/><line class="cls-6" x1="136.86" y1="52.5" x2="136.86" y2="56"/><line class="cls-7" x1="136.86" y1="58.5" x2="136.86" y2="552"/><line class="cls-5" x1="136.86" y1="554.5" x2="136.86" y2="564.5"/><line class="cls-5" x1="458.77" y1="37.5" x2="458.77" y2="47.5"/><line class="cls-6" x1="458.77" y1="52.5" x2="458.77" y2="56"/><line class="cls-7" x1="458.77" y1="58.5" x2="458.77" y2="552"/><line class="cls-5" x1="458.77" y1="554.5" x2="458.77" y2="564.5"/><line class="cls-5" x1="515.83" y1="37.5" x2="515.83" y2="47.5"/><line class="cls-6" x1="515.83" y1="52.5" x2="515.83" y2="56"/><line class="cls-7" x1="515.83" y1="58.5" x2="515.83" y2="552"/><line class="cls-5" x1="515.83" y1="554.5" x2="515.83" y2="564.5"/><line class="cls-5" x1="563.5" y1="82.33" x2="553.5" y2="82.33"/><line class="cls-6" x1="548.5" y1="82.33" x2="545" y2="82.33"/><line class="cls-7" x1="542.5" y1="82.33" x2="49" y2="82.33"/><line class="cls-5" x1="46.5" y1="82.33" x2="36.5" y2="82.33"/><line class="cls-5" x1="562.5" y1="207.52" x2="552.5" y2="207.52"/><line class="cls-6" x1="547.5" y1="207.52" x2="544" y2="207.52"/><line class="cls-7" x1="541.5" y1="207.52" x2="48" y2="207.52"/><line class="cls-5" x1="45.5" y1="207.52" x2="35.5" y2="207.52"/><line class="cls-5" x1="563.5" y1="383.09" x2="553.5" y2="383.09"/><line class="cls-6" x1="548.5" y1="383.09" x2="545" y2="383.09"/><line class="cls-7" x1="542.5" y1="383.09" x2="49" y2="383.09"/><line class="cls-5" x1="46.5" y1="383.09" x2="36.5" y2="383.09"/><line class="cls-5" x1="563.5" y1="513.84" x2="553.5" y2="513.84"/><line class="cls-6" x1="548.5" y1="513.84" x2="545" y2="513.84"/><line class="cls-7" x1="542.5" y1="513.84" x2="49" y2="513.84"/><line class="cls-5" x1="46.5" y1="513.84" x2="36.5" y2="513.84"/><path class="cls-8" d="M444.58,82.41H155.48a71.09,71.09,0,0,0-71,71v289.1a71.09,71.09,0,0,0,71,71h289.1a71.09,71.09,0,0,0,71-71V153.42A71.09,71.09,0,0,0,444.58,82.41Zm55.79,360.11a55.85,55.85,0,0,1-55.79,55.79H155.48a55.85,55.85,0,0,1-55.79-55.79V153.42a55.86,55.86,0,0,1,55.79-55.79h289.1a55.85,55.85,0,0,1,55.79,55.79Z"/><path class="cls-8" d="M457.65,214.89a4.05,4.05,0,0,0-5.39-.55l-53.69,36.43c-3.62,2.46-2.79,10.35,2.71,10.11l17.62-.79,1.57-.07C310.28,393.44,195.81,353.68,147.72,327.3l-.16-.11-.26-.12-.23-.12v0a4.84,4.84,0,0,0-4.73,8.42h0l.1.06.17.12.12.06c176.46,107.72,253.41,5.43,295.38-68.1l11.56,23.69a4.91,4.91,0,0,0,9.4-2q.45-34.84.89-69.7A5.19,5.19,0,0,0,457.65,214.89Z"/><circle class="cls-7" cx="515.48" cy="513.03" r="56"/><circle class="cls-7" cx="515.48" cy="83.2" r="56"/><circle class="cls-7" cx="83.77" cy="513.03" r="53.72"/><circle class="cls-7" cx="83.77" cy="83.5" r="53.72"/><g class="cls-9"><rect class="cls-10" x="-213.54" y="91.78" width="621.55" height="1" transform="translate(-36.77 95.78) rotate(-45)"/><rect class="cls-10" x="-210.02" y="95.3" width="621.55" height="1" transform="translate(-38.23 99.31) rotate(-45)"/><rect class="cls-10" x="-206.49" y="98.83" width="621.55" height="1" transform="translate(-39.69 102.83) rotate(-45)"/><rect class="cls-10" x="-202.97" y="102.35" width="621.55" height="1" transform="translate(-41.15 106.35) rotate(-45)"/><rect class="cls-10" x="-199.45" y="105.87" width="621.55" height="1" transform="translate(-42.61 109.87) rotate(-45)"/><rect class="cls-10" x="-195.93" y="109.39" width="621.55" height="1" transform="translate(-44.07 113.4) rotate(-45)"/><rect class="cls-10" x="-192.4" y="112.91" width="621.55" height="1" transform="translate(-45.53 116.92) rotate(-45)"/><rect class="cls-10" x="-188.88" y="116.44" width="621.55" height="1" transform="translate(-46.99 120.44) rotate(-45)"/><rect class="cls-10" x="-185.36" y="119.96" width="621.55" height="1" transform="translate(-48.45 123.96) rotate(-45)"/><rect class="cls-10" x="-181.84" y="123.48" width="621.55" height="1" transform="translate(-49.9 127.49) rotate(-45)"/><rect class="cls-10" x="-178.31" y="127" width="621.55" height="1" transform="translate(-51.36 131.01) rotate(-45)"/><rect class="cls-10" x="-174.79" y="130.53" width="621.55" height="1" transform="translate(-52.82 134.53) rotate(-45)"/><rect class="cls-10" x="-171.27" y="134.05" width="621.55" height="1" transform="translate(-54.28 138.05) rotate(-45)"/><rect class="cls-10" x="-167.75" y="137.57" width="621.55" height="1" transform="translate(-55.74 141.58) rotate(-45)"/><rect class="cls-10" x="-164.22" y="141.1" width="621.55" height="1" transform="translate(-57.2 145.1) rotate(-45)"/><rect class="cls-10" x="-160.7" y="144.62" width="621.55" height="1" transform="translate(-58.66 148.62) rotate(-45)"/><rect class="cls-10" x="-157.18" y="148.14" width="621.55" height="1" transform="translate(-60.12 152.14) rotate(-45)"/><rect class="cls-10" x="-153.66" y="151.66" width="621.55" height="1" transform="translate(-61.58 155.67) rotate(-45)"/><rect class="cls-10" x="-150.13" y="155.19" width="621.55" height="1" transform="translate(-63.04 159.19) rotate(-45)"/><rect class="cls-10" x="-146.61" y="158.71" width="621.55" height="1" transform="translate(-64.5 162.71) rotate(-45)"/><rect class="cls-10" x="-143.09" y="162.23" width="621.55" height="1" transform="translate(-65.95 166.23) rotate(-45)"/><rect class="cls-10" x="-139.57" y="165.75" width="621.55" height="1" transform="translate(-67.41 169.76) rotate(-45)"/><rect class="cls-10" x="-136.04" y="169.28" width="621.55" height="1" transform="translate(-68.87 173.28) rotate(-45)"/><rect class="cls-10" x="-132.52" y="172.8" width="621.55" height="1" transform="translate(-70.33 176.8) rotate(-45)"/><rect class="cls-10" x="-129" y="176.32" width="621.55" height="1" transform="translate(-71.79 180.32) rotate(-45)"/><rect class="cls-10" x="-125.48" y="179.84" width="621.55" height="1" transform="translate(-73.25 183.85) rotate(-45)"/><rect class="cls-10" x="-121.95" y="183.37" width="621.55" height="1" transform="translate(-74.71 187.37) rotate(-45)"/><rect class="cls-10" x="-118.43" y="186.89" width="621.55" height="1" transform="translate(-76.17 190.89) rotate(-45)"/><rect class="cls-10" x="-114.91" y="190.41" width="621.55" height="1" transform="translate(-77.63 194.41) rotate(-45)"/><rect class="cls-10" x="-111.39" y="193.93" width="621.55" height="1" transform="translate(-79.09 197.94) rotate(-45)"/><rect class="cls-10" x="-107.86" y="197.46" width="621.55" height="1" transform="translate(-80.54 201.46) rotate(-45)"/><rect class="cls-10" x="-104.34" y="200.98" width="621.55" height="1" transform="translate(-82 204.98) rotate(-45)"/><rect class="cls-10" x="-100.82" y="204.5" width="621.55" height="1" transform="translate(-83.46 208.5) rotate(-45)"/><rect class="cls-10" x="-97.3" y="208.02" width="621.55" height="1" transform="translate(-84.92 212.03) rotate(-45)"/><rect class="cls-10" x="-93.77" y="211.54" width="621.55" height="1" transform="translate(-86.38 215.55) rotate(-45)"/><rect class="cls-10" x="-90.25" y="215.07" width="621.55" height="1" transform="translate(-87.84 219.07) rotate(-45)"/><rect class="cls-10" x="-86.73" y="218.59" width="621.55" height="1" transform="translate(-89.3 222.59) rotate(-45)"/><rect class="cls-10" x="-83.21" y="222.11" width="621.55" height="1" transform="translate(-90.76 226.12) rotate(-45)"/><rect class="cls-10" x="-79.68" y="225.64" width="621.55" height="1" transform="translate(-92.22 229.64) rotate(-45)"/><rect class="cls-10" x="-76.16" y="229.16" width="621.55" height="1" transform="translate(-93.68 233.16) rotate(-45)"/><rect class="cls-10" x="-72.64" y="232.68" width="621.55" height="1" transform="translate(-95.14 236.68) rotate(-45)"/><rect class="cls-10" x="-69.12" y="236.2" width="621.55" height="1" transform="translate(-96.59 240.21) rotate(-45)"/><rect class="cls-10" x="-65.59" y="239.73" width="621.55" height="1" transform="translate(-98.05 243.73) rotate(-45)"/><rect class="cls-10" x="-62.07" y="243.25" width="621.55" height="1" transform="translate(-99.51 247.25) rotate(-45)"/><rect class="cls-10" x="-58.55" y="246.77" width="621.55" height="1" transform="translate(-100.97 250.77) rotate(-45)"/><rect class="cls-10" x="-55.03" y="250.29" width="621.55" height="1" transform="translate(-102.43 254.3) rotate(-45)"/><rect class="cls-10" x="-51.5" y="253.82" width="621.55" height="1" transform="translate(-103.89 257.82) rotate(-45)"/><rect class="cls-10" x="-47.98" y="257.34" width="621.55" height="1" transform="translate(-105.35 261.34) rotate(-45)"/><rect class="cls-10" x="-44.46" y="260.86" width="621.55" height="1" transform="translate(-106.81 264.86) rotate(-45)"/><rect class="cls-10" x="-40.94" y="264.38" width="621.55" height="1" transform="translate(-108.27 268.39) rotate(-45)"/><rect class="cls-10" x="-37.41" y="267.91" width="621.55" height="1" transform="translate(-109.73 271.91) rotate(-45)"/><rect class="cls-10" x="-33.89" y="271.43" width="621.55" height="1" transform="translate(-111.19 275.43) rotate(-45)"/><rect class="cls-10" x="-30.37" y="274.95" width="621.55" height="1" transform="translate(-112.64 278.95) rotate(-45)"/><rect class="cls-10" x="-26.85" y="278.47" width="621.55" height="1" transform="translate(-114.1 282.48) rotate(-45)"/><rect class="cls-10" x="-23.32" y="282" width="621.55" height="1" transform="translate(-115.56 286) rotate(-45)"/><rect class="cls-10" x="-19.8" y="285.52" width="621.55" height="1" transform="translate(-117.02 289.52) rotate(-45)"/><rect class="cls-10" x="-16.28" y="289.04" width="621.55" height="1" transform="translate(-118.48 293.04) rotate(-45)"/><rect class="cls-10" x="-12.76" y="292.56" width="621.55" height="1" transform="translate(-119.94 296.57) rotate(-45)"/><rect class="cls-10" x="-9.23" y="296.08" width="621.55" height="1" transform="translate(-121.4 300.09) rotate(-45)"/><rect class="cls-10" x="-5.71" y="299.61" width="621.55" height="1" transform="translate(-122.86 303.61) rotate(-45)"/><rect class="cls-10" x="-2.19" y="303.13" width="621.55" height="1" transform="translate(-124.32 307.13) rotate(-45)"/><rect class="cls-10" x="1.33" y="306.65" width="621.55" height="1" transform="translate(-125.78 310.66) rotate(-45)"/><rect class="cls-10" x="4.86" y="310.18" width="621.55" height="1" transform="translate(-127.24 314.18) rotate(-45)"/><rect class="cls-10" x="8.38" y="313.7" width="621.55" height="1" transform="translate(-128.69 317.7) rotate(-45)"/><rect class="cls-10" x="11.9" y="317.22" width="621.55" height="1" transform="translate(-130.15 321.22) rotate(-45)"/><rect class="cls-10" x="15.42" y="320.74" width="621.55" height="1" transform="translate(-131.61 324.75) rotate(-45)"/><rect class="cls-10" x="18.95" y="324.27" width="621.55" height="1" transform="translate(-133.07 328.27) rotate(-45)"/><rect class="cls-10" x="22.47" y="327.79" width="621.55" height="1" transform="translate(-134.53 331.79) rotate(-45)"/><rect class="cls-10" x="25.99" y="331.31" width="621.55" height="1" transform="translate(-135.99 335.31) rotate(-45)"/><rect class="cls-10" x="29.51" y="334.83" width="621.55" height="1" transform="translate(-137.45 338.84) rotate(-45)"/><rect class="cls-10" x="33.04" y="338.36" width="621.55" height="1" transform="translate(-138.91 342.36) rotate(-45)"/><rect class="cls-10" x="36.56" y="341.88" width="621.55" height="1" transform="translate(-140.37 345.88) rotate(-45)"/><rect class="cls-10" x="40.08" y="345.4" width="621.55" height="1" transform="translate(-141.83 349.4) rotate(-45)"/><rect class="cls-10" x="43.6" y="348.92" width="621.55" height="1" transform="translate(-143.28 352.93) rotate(-45)"/><rect class="cls-10" x="47.13" y="352.45" width="621.55" height="1" transform="translate(-144.74 356.45) rotate(-45)"/><rect class="cls-10" x="50.65" y="355.97" width="621.55" height="1" transform="translate(-146.2 359.97) rotate(-45)"/><rect class="cls-10" x="54.17" y="359.49" width="621.55" height="1" transform="translate(-147.66 363.49) rotate(-45)"/><rect class="cls-10" x="57.69" y="363.01" width="621.55" height="1" transform="translate(-149.12 367.02) rotate(-45)"/><rect class="cls-10" x="61.22" y="366.54" width="621.55" height="1" transform="translate(-150.58 370.54) rotate(-45)"/><rect class="cls-10" x="64.74" y="370.06" width="621.55" height="1" transform="translate(-152.04 374.06) rotate(-45)"/><rect class="cls-10" x="68.26" y="373.58" width="621.55" height="1" transform="translate(-153.5 377.58) rotate(-45)"/><rect class="cls-10" x="71.78" y="377.1" width="621.55" height="1" transform="translate(-154.96 381.11) rotate(-45)"/><rect class="cls-10" x="75.31" y="380.63" width="621.55" height="1" transform="translate(-156.42 384.63) rotate(-45)"/><rect class="cls-10" x="78.83" y="384.15" width="621.55" height="1" transform="translate(-157.88 388.15) rotate(-45)"/><rect class="cls-10" x="82.35" y="387.67" width="621.55" height="1" transform="translate(-159.33 391.67) rotate(-45)"/><rect class="cls-10" x="85.87" y="391.19" width="621.55" height="1" transform="translate(-160.79 395.2) rotate(-45)"/><rect class="cls-10" x="89.4" y="394.72" width="621.55" height="1" transform="translate(-162.25 398.72) rotate(-45)"/><rect class="cls-10" x="92.92" y="398.24" width="621.55" height="1" transform="translate(-163.71 402.24) rotate(-45)"/><rect class="cls-10" x="96.44" y="401.76" width="621.55" height="1" transform="translate(-165.17 405.76) rotate(-45)"/><rect class="cls-10" x="99.96" y="405.28" width="621.55" height="1" transform="translate(-166.63 409.29) rotate(-45)"/><rect class="cls-10" x="103.49" y="408.81" width="621.55" height="1" transform="translate(-168.09 412.81) rotate(-45)"/><rect class="cls-10" x="107.01" y="412.33" width="621.55" height="1" transform="translate(-169.55 416.33) rotate(-45)"/><rect class="cls-10" x="110.53" y="415.85" width="621.55" height="1" transform="translate(-171.01 419.85) rotate(-45)"/><rect class="cls-10" x="114.05" y="419.37" width="621.55" height="1" transform="translate(-172.47 423.38) rotate(-45)"/><rect class="cls-10" x="117.58" y="422.9" width="621.55" height="1" transform="translate(-173.93 426.9) rotate(-45)"/><rect class="cls-10" x="121.1" y="426.42" width="621.55" height="1" transform="translate(-175.38 430.42) rotate(-45)"/><rect class="cls-10" x="124.62" y="429.94" width="621.55" height="1" transform="translate(-176.84 433.94) rotate(-45)"/><rect class="cls-10" x="128.14" y="433.46" width="621.55" height="1" transform="translate(-178.3 437.47) rotate(-45)"/><rect class="cls-10" x="131.67" y="436.99" width="621.55" height="1" transform="translate(-179.76 440.99) rotate(-45)"/><rect class="cls-10" x="135.19" y="440.51" width="621.55" height="1" transform="translate(-181.22 444.51) rotate(-45)"/><rect class="cls-10" x="138.71" y="444.03" width="621.55" height="1" transform="translate(-182.68 448.03) rotate(-45)"/><rect class="cls-10" x="142.23" y="447.55" width="621.55" height="1" transform="translate(-184.14 451.56) rotate(-45)"/><rect class="cls-10" x="145.76" y="451.08" width="621.55" height="1" transform="translate(-185.6 455.08) rotate(-45)"/><rect class="cls-10" x="149.28" y="454.6" width="621.55" height="1" transform="translate(-187.06 458.6) rotate(-45)"/><rect class="cls-10" x="152.8" y="458.12" width="621.55" height="1" transform="translate(-188.52 462.12) rotate(-45)"/><rect class="cls-10" x="156.32" y="461.64" width="621.55" height="1" transform="translate(-189.97 465.65) rotate(-45)"/><rect class="cls-10" x="159.85" y="465.17" width="621.55" height="1" transform="translate(-191.43 469.17) rotate(-45)"/><rect class="cls-10" x="163.37" y="468.69" width="621.55" height="1" transform="translate(-192.89 472.69) rotate(-45)"/><rect class="cls-10" x="166.89" y="472.21" width="621.55" height="1" transform="translate(-194.35 476.21) rotate(-45)"/><rect class="cls-10" x="170.41" y="475.73" width="621.55" height="1" transform="translate(-195.81 479.74) rotate(-45)"/><rect class="cls-10" x="173.94" y="479.26" width="621.55" height="1" transform="translate(-197.27 483.26) rotate(-45)"/><rect class="cls-10" x="177.46" y="482.78" width="621.55" height="1" transform="translate(-198.73 486.78) rotate(-45)"/><rect class="cls-10" x="180.98" y="486.3" width="621.55" height="1" transform="translate(-200.19 490.3) rotate(-45)"/><rect class="cls-10" x="184.5" y="489.82" width="621.55" height="1" transform="translate(-201.65 493.83) rotate(-45)"/><rect class="cls-10" x="188.03" y="493.35" width="621.55" height="1" transform="translate(-203.11 497.35) rotate(-45)"/><rect class="cls-10" x="191.55" y="496.87" width="621.55" height="1" transform="translate(-204.57 500.87) rotate(-45)"/><rect class="cls-10" x="195.07" y="500.39" width="621.55" height="1" transform="translate(-206.02 504.39) rotate(-45)"/><rect class="cls-10" x="198.59" y="503.91" width="621.55" height="1" transform="translate(-207.48 507.92) rotate(-45)"/></g><g class="cls-11"><rect class="cls-10" x="-18.13" y="217.53" width="499.22" height="1" transform="translate(-86.37 227.54) rotate(-45)"/><rect class="cls-10" x="-14.59" y="221.06" width="499.22" height="1" transform="translate(-87.83 231.08) rotate(-45)"/><rect class="cls-10" x="-11.06" y="224.59" width="499.22" height="1" transform="translate(-89.3 234.61) rotate(-45)"/><rect class="cls-10" x="-7.53" y="228.13" width="499.22" height="1" transform="translate(-90.76 238.14) rotate(-45)"/><rect class="cls-10" x="-4" y="231.66" width="499.22" height="1" transform="translate(-92.22 241.67) rotate(-45)"/><rect class="cls-10" x="-0.47" y="235.19" width="499.22" height="1" transform="translate(-93.69 245.2) rotate(-45)"/><rect class="cls-10" x="3.07" y="238.72" width="499.22" height="1" transform="translate(-95.15 248.73) rotate(-45)"/><rect class="cls-10" x="6.6" y="242.25" width="499.22" height="1" transform="translate(-96.61 252.27) rotate(-45)"/><rect class="cls-10" x="10.13" y="245.79" width="499.22" height="1" transform="translate(-98.07 255.8) rotate(-45)"/><rect class="cls-10" x="13.66" y="249.32" width="499.22" height="1" transform="translate(-99.54 259.33) rotate(-45)"/><rect class="cls-10" x="17.19" y="252.85" width="499.22" height="1" transform="translate(-101 262.86) rotate(-45)"/><rect class="cls-10" x="20.73" y="256.38" width="499.22" height="1" transform="translate(-102.46 266.39) rotate(-45)"/><rect class="cls-10" x="24.26" y="259.91" width="499.22" height="1" transform="translate(-103.93 269.93) rotate(-45)"/><rect class="cls-10" x="27.79" y="263.45" width="499.22" height="1" transform="translate(-105.39 273.46) rotate(-45)"/><rect class="cls-10" x="31.32" y="266.98" width="499.22" height="1" transform="translate(-106.85 276.99) rotate(-45)"/><rect class="cls-10" x="34.85" y="270.51" width="499.22" height="1" transform="translate(-108.32 280.52) rotate(-45)"/><rect class="cls-10" x="38.39" y="274.04" width="499.22" height="1" transform="translate(-109.78 284.05) rotate(-45)"/><rect class="cls-10" x="41.92" y="277.57" width="499.22" height="1" transform="translate(-111.24 287.59) rotate(-45)"/><rect class="cls-10" x="45.45" y="281.1" width="499.22" height="1" transform="translate(-112.7 291.12) rotate(-45)"/><rect class="cls-10" x="48.98" y="284.64" width="499.22" height="1" transform="translate(-114.17 294.65) rotate(-45)"/><rect class="cls-10" x="52.51" y="288.17" width="499.22" height="1" transform="translate(-115.63 298.18) rotate(-45)"/><rect class="cls-10" x="56.05" y="291.7" width="499.22" height="1" transform="translate(-117.09 301.71) rotate(-45)"/><rect class="cls-10" x="59.58" y="295.23" width="499.22" height="1" transform="translate(-118.56 305.25) rotate(-45)"/><rect class="cls-10" x="63.11" y="298.76" width="499.22" height="1" transform="translate(-120.02 308.78) rotate(-45)"/><rect class="cls-10" x="66.64" y="302.3" width="499.22" height="1" transform="translate(-121.48 312.31) rotate(-45)"/><rect class="cls-10" x="70.17" y="305.83" width="499.22" height="1" transform="translate(-122.94 315.84) rotate(-45)"/><rect class="cls-10" x="73.7" y="309.36" width="499.22" height="1" transform="translate(-124.41 319.37) rotate(-45)"/><rect class="cls-10" x="77.24" y="312.89" width="499.22" height="1" transform="translate(-125.87 322.9) rotate(-45)"/><rect class="cls-10" x="80.77" y="316.42" width="499.22" height="1" transform="translate(-127.33 326.44) rotate(-45)"/><rect class="cls-10" x="84.3" y="319.96" width="499.22" height="1" transform="translate(-128.8 329.97) rotate(-45)"/><rect class="cls-10" x="87.83" y="323.49" width="499.22" height="1" transform="translate(-130.26 333.5) rotate(-45)"/><rect class="cls-10" x="91.36" y="327.02" width="499.22" height="1" transform="translate(-131.72 337.03) rotate(-45)"/><rect class="cls-10" x="94.9" y="330.55" width="499.22" height="1" transform="translate(-133.19 340.56) rotate(-45)"/><rect class="cls-10" x="98.43" y="334.08" width="499.22" height="1" transform="translate(-134.65 344.1) rotate(-45)"/><rect class="cls-10" x="101.96" y="337.62" width="499.22" height="1" transform="translate(-136.11 347.63) rotate(-45)"/><rect class="cls-10" x="105.49" y="341.15" width="499.22" height="1" transform="translate(-137.57 351.16) rotate(-45)"/><rect class="cls-10" x="109.02" y="344.68" width="499.22" height="1" transform="translate(-139.04 354.69) rotate(-45)"/><rect class="cls-10" x="112.56" y="348.21" width="499.22" height="1" transform="translate(-140.5 358.22) rotate(-45)"/><rect class="cls-10" x="116.09" y="351.74" width="499.22" height="1" transform="translate(-141.96 361.76) rotate(-45)"/><rect class="cls-10" x="119.62" y="355.28" width="499.22" height="1" transform="translate(-143.43 365.29) rotate(-45)"/><rect class="cls-10" x="123.15" y="358.81" width="499.22" height="1" transform="translate(-144.89 368.82) rotate(-45)"/><rect class="cls-10" x="126.68" y="362.34" width="499.22" height="1" transform="translate(-146.35 372.35) rotate(-45)"/><rect class="cls-10" x="130.22" y="365.87" width="499.22" height="1" transform="translate(-147.82 375.88) rotate(-45)"/><rect class="cls-10" x="133.75" y="369.4" width="499.22" height="1" transform="translate(-149.28 379.42) rotate(-45)"/><rect class="cls-10" x="137.28" y="372.93" width="499.22" height="1" transform="translate(-150.74 382.95) rotate(-45)"/><rect class="cls-10" x="140.81" y="376.47" width="499.22" height="1" transform="translate(-152.2 386.48) rotate(-45)"/><rect class="cls-10" x="144.34" y="380" width="499.22" height="1" transform="translate(-153.67 390.01) rotate(-45)"/><rect class="cls-10" x="147.87" y="383.53" width="499.22" height="1" transform="translate(-155.13 393.54) rotate(-45)"/></g></svg>